<svg xmlns="http://www.w3.org/2000/svg" xmlns:xlink="http://www.w3.org/1999/xlink"><symbol id="assignment-mask" viewBox="0 0 320 71" preserveAspectRatio="none"><path d="M106.5 55.555C63.7 82.379 17.667 68.265 0 57.856V0h320v55.555c-72-44.05-160-33.53-213.5 0z" overflow="visible" fill="#282828"/></symbol><symbol id="course-content-mask" viewBox="0 0 320 57" preserveAspectRatio="none"><path overflow="visible" d="M106.5 12.4C63.7-9.136 17.667 2.194 0 10.551V57h320V12.4c-72 35.363-160 26.918-213.5 0z" fill="#282828"/></symbol><symbol id="feedback-mask" viewBox="0 0 320 42" preserveAspectRatio="none"><path overflow="visible" d="M213.5 32.864c42.8 15.867 88.833 7.519 106.5 1.36V0H0v32.864c72-26.058 160-19.835 213.5 0z" fill="#282828"/></symbol><symbol id="feedback2-mask" viewBox="0 0 320 100" preserveAspectRatio="none"><path overflow="visible" d="M320 58.749c-130.8-106.4-267.833-44.333-320 0v41h320v-41z" fill="#282828"/></symbol><symbol id="intro-mask-tablet" viewBox="0 0 600 99" preserveAspectRatio="none">
<path overflow="visible" d="M600 0C344.907 164.507 86.3781 68.5446 -11 0V98.5165H600V0Z" fill="#282828"/>
</symbol><symbol id="intro-mask" viewBox="0 0 320 104" preserveAspectRatio="none">
<path overflow="visible" d="M320 0C186.4 105.2 51 43.8333 0 0V103.5H320V0Z" fill="#282828"/>
</symbol></svg>