<svg width="31" height="24" viewBox="0 0 31 24" fill="none" xmlns="http://www.w3.org/2000/svg">
    <path
        d="M0.963339 8.22487C1.18112 8.22487 1.45334 8.30665 1.61667 8.47021L15.5 21.432L29.4378 8.47021C29.71 8.22487 30.2545 8.18398 30.5811 8.38843C30.9078 8.59287 30.9622 9.00176 30.69 9.2471L15.5 23.3946L0.310004 9.2471C0.0377814 9.00176 0.0922285 8.59287 0.418896 8.38843C0.582228 8.26576 0.745562 8.22487 0.963339 8.22487Z"
        fill="#F1A613" />
    <path
        d="M0.88647 0.876099C1.10425 0.876099 1.37647 0.957875 1.5398 1.12143L15.4231 14.0832L29.3609 1.12143C29.6331 0.876098 30.1776 0.83521 30.5043 1.03965C30.8309 1.2441 30.8854 1.65299 30.6131 1.89832L15.4231 16.005L0.233135 1.85743C-0.0390876 1.6121 0.0153595 1.20321 0.342027 0.998766C0.505359 0.916988 0.668693 0.876099 0.88647 0.876099Z"
        fill="#F1A613" />
</svg>