<svg width="37" height="32" fill="none" xmlns="http://www.w3.org/2000/svg"><path d="M21.443 0a2.958 2.958 0 0 1 2.943 2.948v5.474h9.67A2.958 2.958 0 0 1 37 11.37v11.79a2.958 2.958 0 0 1-2.943 2.949h-1.235l-.026 5.053a.843.843 0 0 1-1.525.487l-3.941-5.54H15.557a2.958 2.958 0 0 1-2.943-2.948v-5.475H9.67l-3.941 5.54a.84.84 0 0 1-1.525-.486l-.026-5.053H2.943A2.958 2.958 0 0 1 0 14.738V2.948A2.958 2.958 0 0 1 2.943 0h18.5zm0 1.684h-18.5c-.714 0-1.262.55-1.262 1.264v11.79c0 .715.548 1.264 1.262 1.264h2.076a.84.84 0 0 1 .84.83l.014 3.276 2.68-3.764a.84.84 0 0 1 .683-.342h12.207c.713 0 1.261-.55 1.261-1.263V2.948c0-.715-.548-1.264-1.261-1.264zm12.614 8.423h-9.67v4.632a2.958 2.958 0 0 1-2.944 2.947h-7.148v5.475c0 .714.548 1.263 1.262 1.263h12.206a.839.839 0 0 1 .683.342l2.68 3.764.014-3.277a.843.843 0 0 1 .84-.829h2.077c.713 0 1.261-.55 1.261-1.263V11.37a1.24 1.24 0 0 0-1.261-1.263z" fill="#F1A613"/></svg>