<svg width="34" height="30" fill="none" xmlns="http://www.w3.org/2000/svg"><path d="M24.791 22.857H.708A.712.712 0 0 1 0 22.143V.714C0 .32.317 0 .708 0h24.083c.391 0 .708.32.708.714v21.429a.712.712 0 0 1-.708.714zM1.417 21.43h22.666v-20H1.417v20z" fill="#F1A613"/><path d="M23.374 30a.696.696 0 0 1-.344-.09l-12.75-7.143a.718.718 0 0 1-.274-.971.704.704 0 0 1 .964-.277l12.142 6.802 9.232-15.957L24.4 7.023a.719.719 0 0 1-.197-.99.706.706 0 0 1 .982-.199l8.5 5.714a.717.717 0 0 1 .218.955l-9.917 17.143a.707.707 0 0 1-.612.354zM12.75 14.286c-2.344 0-4.25-1.923-4.25-4.286 0-2.363 1.906-4.286 4.25-4.286C15.093 5.714 17 7.637 17 10c0 2.363-1.907 4.286-4.25 4.286zm0-7.143c-1.563 0-2.834 1.281-2.834 2.857 0 1.576 1.271 2.857 2.834 2.857 1.562 0 2.833-1.281 2.833-2.857 0-1.576-1.27-2.857-2.833-2.857z" fill="#F1A613"/><path d="M19.125 22.857H6.375a.712.712 0 0 1-.708-.714V20c0-3.939 3.177-7.143 7.083-7.143 3.905 0 7.083 3.204 7.083 7.143v2.143a.712.712 0 0 1-.708.714zM7.083 21.428h11.333V20c0-3.152-2.541-5.714-5.666-5.714-3.125 0-5.667 2.562-5.667 5.714v1.428z" fill="#F1A613"/></svg>