<svg width="28" height="33" fill="none" xmlns="http://www.w3.org/2000/svg"><path fill-rule="evenodd" clip-rule="evenodd" d="M20.485 7.845v-.809a2.783 2.783 0 0 1-.681-.481c-.348-.502-.4-1.044-.405-1.092-.004-.01-.291-1.037.262-1.998.325.056 1.818.251 2.895-.638.128.212.511.664 1.463.664h.018c.066.236.276 1.128.002 1.97a2.45 2.45 0 0 1-.48 1.189c-.162.14-.34.26-.532.36v.835s-.533.32-1.27.32c-.636 0-1.272-.32-1.272-.32zm3.638-.081h-.366c.004.043-.65.704-1.988.7-1.12-.005-2.056-.657-2.052-.7h-.262c-1.106 0-1.909.43-2.589 1.383l-.76 1.091V7.935c.614.136 1.538.152 2.477-.543.368-.272.655-.646.897-1.065a2.685 2.685 0 0 1-.25-.825c-.03-.11-.299-1.168.313-2.175a.087.087 0 0 1 .092-.04c.017.004 1.765.352 2.89-.66a.086.086 0 0 1 .08-.02c.027.008.05.028.06.054.01.027.263.66 1.355.66l.079-.001c.036 0 .073.023.084.059.015.044.353 1.1.023 2.125-.007.069-.06.454-.276.875.236.398.514.753.866 1.013 1.622 1.2 3.204.28 3.204.28s-2.474-.32-2.434-2.92c.04-2.6-1.45-3.521-1.45-3.521C22.806.37 21.834.808 21.69.882c-.145-.074-1.117-.512-2.426.349 0 0-1.49.922-1.45 3.522.025 1.665-.98 2.394-1.706 2.704V.882c0-.486-.414-.882-.922-.882H.922C.413 0 0 .396 0 .882V22.71c0 .486.413.881.922.881h1.925L.744 32.066h2.949l2.103-8.473h5.12l2.102 8.473h2.949l-2.103-8.473h1.321c.508 0 .922-.396.922-.882V14.04c.028-.033.056-.065.081-.102l1.978-2.522.005 6.424h-.015l-1.82 6.157h1.84l.006 7.532c.005 1.97 2.377 1.952 2.37-.046l.01-7.486h1.339v7.472c-.007 2.007 2.4 2.058 2.402.06v-7.532h1.73l-1.73-5.89v-1.58l-3.94 1.203-1.938-6.168 4.27-1.306 1.152 3.662-2.84.865c-.614.187-1.062.577-.768 1.435.205.6.841.568 1.455.38a.012.012 0 0 1 .003 0l5.265-1.74v-3.782c.005-2.087-1.184-3.313-2.839-3.312zm.894 5.796l-.714.218v-2.08h.714v1.862zm-9.673-2.226l-.835 1.201h-4.083c-.05 0-.1.002-.147.005L6.868 6.933a.384.384 0 0 0-.523-.129.373.373 0 0 0-.131.516l3.336 5.483c-.652.528-.325 1.655.845 1.65h4.715a1.5 1.5 0 0 0 .234-.016v8.273c0 .07-.072.13-.159.13H.922c-.087 0-.16-.06-.16-.13V.882c0-.07.073-.13.16-.13h14.263c.087 0 .16.06.16.13v10.452z" fill="#F1A613"/></svg>